<svg xmlns="http://www.w3.org/2000/svg" width="186.16" height="63.283" viewBox="0 0 186.16 63.283">
  <g id="Group_8" data-name="Group 8" transform="translate(-623.386 -452.58)">
    <g id="Group_9" data-name="Group 9" transform="translate(623.386 452.58)">
      <path id="Path_15" data-name="Path 15" d="M667.264,453.306h-1.473v34.315l-31.8-33.183-.011-.014a6.216,6.216,0,0,0-1.458-1.112h-.007a5.823,5.823,0,0,0-1.733-.6v0a6.188,6.188,0,0,0-1.806-.089,6.1,6.1,0,0,0-1.777.446l-.034.018a6.418,6.418,0,0,0-1.5.937v0a6.466,6.466,0,0,0-1.192,1.318,5.908,5.908,0,0,0-1.081,3.449V508.08h12.349V473.764l31.8,33.2v0a5.842,5.842,0,0,0,1,.841,5.22,5.22,0,0,0,1.157.58v0a6.391,6.391,0,0,0,2.241.422,6.151,6.151,0,0,0,1.236-.128,5.878,5.878,0,0,0,1.178-.363,6.278,6.278,0,0,0,1.042-.543v-.007a5.856,5.856,0,0,0,.93-.747,5.918,5.918,0,0,0,.742-.917,6.615,6.615,0,0,0,.566-1.033l.014-.021a6.49,6.49,0,0,0,.5-2.451V453.306H667.264Z" transform="translate(-623.386 -452.577)" fill="#fff"/>
      <path id="Path_16" data-name="Path 16" d="M688.722,465.123a13.727,13.727,0,0,1,2.366-.2H703.82a13.1,13.1,0,0,1,2.333.2,10.888,10.888,0,0,1,2.091.591,10.475,10.475,0,0,1,1.846.932,9.3,9.3,0,0,1,1.524,1.233,9.011,9.011,0,0,1,1.229,1.519,10.181,10.181,0,0,1,.934,1.833,12.236,12.236,0,0,1,.786,4.513v9.9a13.662,13.662,0,0,1-.2,2.4,10.745,10.745,0,0,1-.587,2.1,10.075,10.075,0,0,1-.937,1.836,9.211,9.211,0,0,1-1.24,1.526l-.014,0a8.924,8.924,0,0,1-1.517,1.225,10.41,10.41,0,0,1-1.85.941,11.19,11.19,0,0,1-2.108.584,13.431,13.431,0,0,1-2.364.2h-12.66a13.448,13.448,0,0,1-2.366-.2,11.111,11.111,0,0,1-2.1-.584,10.81,10.81,0,0,1-1.839-.932,9.181,9.181,0,0,1-1.544-1.233l-.007,0a9.2,9.2,0,0,1-1.24-1.526,10.075,10.075,0,0,1-.937-1.836,12.157,12.157,0,0,1-.786-4.5v-9.9a14.141,14.141,0,0,1,.2-2.4,10.893,10.893,0,0,1,.587-2.11,10.111,10.111,0,0,1,.934-1.827,9.245,9.245,0,0,1,2.793-2.759,10.806,10.806,0,0,1,1.839-.932,11.32,11.32,0,0,1,2.1-.588m37.752,5.821a23.207,23.207,0,0,0-1.3-4.454h-.007a22.847,22.847,0,0,0-2.08-3.967,21.033,21.033,0,0,0-2.755-3.382l-.007-.007a22.222,22.222,0,0,0-3.391-2.738,23.072,23.072,0,0,0-3.94-2.072,23.768,23.768,0,0,0-9.17-1.744H691.088a25.54,25.54,0,0,0-4.761.436,23.312,23.312,0,0,0-8.383,3.38,21.9,21.9,0,0,0-3.382,2.738,21.269,21.269,0,0,0-2.769,3.371,23.574,23.574,0,0,0-2.1,3.981,22.591,22.591,0,0,0-1.322,4.458,25.879,25.879,0,0,0-.436,4.8v9.9a25.97,25.97,0,0,0,.436,4.815,22.336,22.336,0,0,0,1.322,4.454,23.254,23.254,0,0,0,2.086,3.958,21.591,21.591,0,0,0,2.773,3.384,21.044,21.044,0,0,0,3.388,2.766,22.745,22.745,0,0,0,3.956,2.062,23.218,23.218,0,0,0,4.427,1.29,25.892,25.892,0,0,0,4.761.432H703.82a25.692,25.692,0,0,0,4.749-.432,23,23,0,0,0,8.361-3.353,21.477,21.477,0,0,0,3.4-2.766h0l0,0a21.508,21.508,0,0,0,2.755-3.387,23.142,23.142,0,0,0,3.384-8.4,26.33,26.33,0,0,0,.436-4.815v-9.9a26.24,26.24,0,0,0-.436-4.8" transform="translate(-606.843 -452.58)" fill="#fff"/>
      <path id="Path_17" data-name="Path 17" d="M726.042,474.3c-.037-.322-.165-.487-.21-.83a2.457,2.457,0,0,0-.185-.863,15.152,15.152,0,0,1,.107-1.691,5.841,5.841,0,0,1,.082-1.785,2.687,2.687,0,0,1,.549-1.452,1.791,1.791,0,0,0,.742-1.338c-.391.148-.333.313-.55.351-.3.058.014-.034-.212-.082-.171-.034.021-.038-.281.1-.32-.487.014-.354-.518-.254.027-.21.144-.384.08-.511-.155-.292-.162-.034-.44,0-.055-.37.1-.171-.071-.693-.151-.468-.032-.367.1-.749l-.37-.368c-.21-.267-.182-.11-.08-.525.176-.082.457.059.564-.329l.144-.409a.4.4,0,0,0,.027-.055l.058-.258c.155-.745.377-.457.854-.617.265-.089.2-.247.4-.361.309-.174.292.027.621-.147.155-.082.24-.224.406-.326.85.313.627.473,1.54.354.361.514.368.226.793.346.34.1,0,.052.226.086s.228-.055.47-.141l-.147.474.236.058a.127.127,0,0,1,.055.018c-.254.487.021.34-.151.875-.058.174-.034.192-.1.343-.014-.014-.023-.058-.03-.048-.018.052-.041-.224-.278-.288-.254.35.08.624.048,1.105-.021.309-.121.281.007.566.089.189.2.182.292.446-.178.34-.107-.016-.226.5a1.533,1.533,0,0,1-.182.59c-.261.447-.731.306-1.249.262-.975,1.138-.546,1.275.144,2.423.594.985,1.715,1.035,1.129,2.415a5.944,5.944,0,0,0-.322,3.243c.128.625.384.787.354,1.562-.027.69.128,1.332.089,1.877l-.391.117c.041.532.429.731.511,1.421.1.8-.248.845-.749,1.126-.119.5-.21,1-.333,1.51-.171.71-.37.666-.377,1.569a3.6,3.6,0,0,1-.4,1.5c-.374.7-.2.457-.267,1.658a12.99,12.99,0,0,0-.082,3.474c.119.782.37.587,1.06.854a3.039,3.039,0,0,0,.662.256c.426.073.55-.071.828.18.267.37-.027.126.078.436.069.2.155-.011.213.414-.281.625-1.437.664-2.165.564a4.306,4.306,0,0,0-1.286-.059c-1.758.1-1.209-.532-1.34-1.009-.078-.284-.117.077-.1-.325,0-.089.126-.391.158-.529a7.4,7.4,0,0,0-.021-1.958,9.832,9.832,0,0,1-.062-1.3c-.027-.413-.171-.721-.169-1.151a7.017,7.017,0,0,1,.162-1.218,6.757,6.757,0,0,0,.309-2.33,12.216,12.216,0,0,1-.178-2.53c.075-1.081.137-.459-.459-1.613-.171-.333-.155-.137-.282-.4-.058-.121-.206-.817-.27-1.037-.344-1.126.724-2.094.439-3.487" transform="translate(-585.767 -449.413)" fill="#ed6bf7"/>
      <path id="Path_18" data-name="Path 18" d="M734.7,490.155l.538.359a.793.793,0,0,0,.56.262c.385.14.454-.062.828.233.026.731-.879.453-1.349.679.35.206,1.229.265,1.375.618.262.624-.75.69-1.238.693-.679,0-1.218-.144-1.846-.14-2.119.01-1.785-.457-1.7-1.171s-.089-.394-.123-.836l.178-3.772a8.617,8.617,0,0,1,.687-3.264c.313-.95.089-.8.023-1.658-.041-.6-.044-1.314-.051-1.921-.014-1.007.128-1.027-.446-1.578a2.358,2.358,0,0,1-.553-1.37,3.307,3.307,0,0,1-.041-.443c-.034-.459.007-.158-.111-.411-.188-.4-.051-.34.021-.769.093-.58-.332-.891-.373-1.581a7.789,7.789,0,0,0-.169-1.813,9.7,9.7,0,0,1-.089-3.693c.288-1.29,1-.93,1.267-1.729.137-.411.185-.292.6-.4l.121-.443c-.326-.539-.351-.016-.81-.885-.134-.247-.134-.166-.329-.3-.052-.6.167.082.023-.425-.064-.224-.078-.055-.247-.32.075-.265.03-.429.114-.625.016-.047.24-.414.291-.544.176-.409-.058-.237.3-.481.3-.208.215-.064.373-.466.361-.064.234.014.457-.14.025-.018.137-.111.176-.141s.181-.158.181-.158a2.331,2.331,0,0,0,.92.11l.182-.123c.171.2.158.2.4.256.377.011.052.011.254.093l.33.144c.014.01.03.023.044.034l.045.034.333.137c-.221.326-.091.344-.018.594.112.4-.059.309-.169.584.2.425.089.346.148.761.052.374.212.213.357.625-.085.3-.092.121-.155.281-.082.219-.062.975-.25,1.218-.433.553-.731-.284-.991.961.012.018.037.018.044.045s.034.03.045.041c.171.154.261.188.3.391.059.313-.071.192.082.614a5.47,5.47,0,0,1,.447,1.242,7.755,7.755,0,0,0,.247,1.455,3.466,3.466,0,0,1,.422,1.288,8.051,8.051,0,0,0,.016.816c.041.224.148.454.175.669.089.694-.35.758-.336,1.274a4.942,4.942,0,0,0,.165.655c.034.343-.13.254-.165.594a17.9,17.9,0,0,0-.021,3.061,2.28,2.28,0,0,1,.11.687c-.075.693-.2-.45-.477,2.053-.059.551-.23.93-.285,1.375-.3,2.553-.6.95-.82,2.592a7.8,7.8,0,0,0-.21,2.995l-.048.968Z" transform="translate(-583.545 -449.265)" fill="#ed6bf7"/>
      <path id="Path_19" data-name="Path 19" d="M738.509,483.817c-.021-.333.048-.374.031-.7-.018-.272-.048-.473-.048-.776,0-.528,0-1.076.016-1.606.018-.5.244-.989.251-1.325.007-.415-.432-.47-.683-.978a2.647,2.647,0,0,1-.137-2.019c.1-.333.048-.409.13-.717.121-.439.4-.61.295-1.27-.037-.237-.165-.272-.219-.59a2.8,2.8,0,0,1,.055-.756c-.621-.436-.37-1.284-.45-2.11a8.446,8.446,0,0,0-.236-1.039c-.073-.411-.007-.831-.082-1.247a4.415,4.415,0,0,1,0-1.576c-.023-.192-.144-.158-.169-.469-.016-.285.066-.269.086-.491.025-.262-.1-.269-.151-.457-.155-.532.178-.68.374-.893,0-.35-.052-.244-.114-.518a3.056,3.056,0,0,1-.03-.535c-.077-.546-.2-.525.021-1.13a2.249,2.249,0,0,1,1.183-1.51,4.25,4.25,0,0,1,2.3.241c.365.092.8.2.906.483a3.9,3.9,0,0,1-.007,1.352c.213.317.306.247.432.618-.085.236-.1.16-.165.3l-.278.721c-.119.6.059.621-1.088.539a1.071,1.071,0,0,1-.219.776c.5.429.278.147.464.786l.411.119.151.975c0,.21-.222.128.4.632.639.514.724.439.717,1.617.443.174.509.078.813.469a1.552,1.552,0,0,1,.374.913c.007.528-.2.518-.311.587-.176.106-.118.021-.217.178-.251.4.208.272-.728.522a.273.273,0,0,0-.066.021,3.263,3.263,0,0,0,.271,1.015l-.1,2.372a.883.883,0,0,1-.439.843,23.234,23.234,0,0,1,.555,3.539c.018.669-.174,1.277-.133,2,.171,3.051-.724,1.22-1.827,5.367-.256.961-.393.14-.518,1.562a3.351,3.351,0,0,1-.055.5l-.13.295a9.277,9.277,0,0,0,1.205.176c.069.361-.059.381-.169.635,1.06.532,1.565.23,1.791.679.34,1.188-1.962,1.089-2.807.863a5.348,5.348,0,0,0-1.74-.258c-1.272-.089-1.019-.564-.669-1.779.152-.514.24-.069.228-.658-.031-1.658-.559-2.928.174-5.392a1.708,1.708,0,0,1,.35-.9" transform="translate(-581.143 -449.448)" fill="#ed6bf7"/>
      <path id="Path_20" data-name="Path 20" d="M744.471,476.17l.032-.247s-.107-.144-.121-.158c-.529-.436-.114-1.259-.247-2.172a11.763,11.763,0,0,1-.1-2.595c-.059-.889-.144-1.7-.13-2.615.021-1.233-.018-.56-.182-1.1-.014-.041-.13-1.14-.13-1.174.126-.35.518-.137,1.218-.7.281-.226.265-.315.477-.518.267-.258.422-.13.708-.274.243-.283-.358-1.133-.436-1.692-.144-.991-.182-1.524.436-1.946a.558.558,0,0,0,.165-.144c.171-.182.055-.178.35-.254a4.119,4.119,0,0,1,2.028.055c.968.587.8.37.621,1.033-.076.278.093.269.2.536.165.407-.021.366.1.669.062.158.206.195.313.51-.082.247-.086.114-.166.282a1.734,1.734,0,0,0-.1.391l-.158.727a2.83,2.83,0,0,1-1.06.182c.021.834-.127.457-.377,1.037a18.537,18.537,0,0,1,1.188,1.692c-.048.418-.2.336-.169.683.01.119.165.542.206.731.116.535.278.943.4,1.458l.089.666.717,2.08c.171,1.053.742.147.769,1.613.014.909.206.357-.166,1.156-.123.271.066.395.093.765a1.183,1.183,0,0,1-.79.636c-.421-.271-.391-.632-.617-.948l.429,3.734c.364,1.5,1.05,3.113.649,4.591-.23.849-.484-.062-.669,2.715a11.37,11.37,0,0,0,.058,2.108c.1.994-.213,1.314.457,1.839-.01.347-.03.192-.106.5.37.207.549.509.93.776.347.247.8.37.848.9-.512.642-1.921.425-2.695.171-.537-.176-.565-.384-1.208-.429-.875-.059-.752-.128-.635-.882a2.8,2.8,0,0,0-1.268.082,1.687,1.687,0,0,1-1.1.126c-.35-.126-.313-.374-.329-.69-.041-.754-.233-.233-.066-.841.31-1.129-.007-1.163.025-1.85.021-.45.058-.9.089-1.348.059-.906-.038-1.918.066-2.784.133-1.164.964-2.1.775-4.828a2.976,2.976,0,0,0-.176-1.2,5.652,5.652,0,0,1-.848-2c-.192-.752-.4-.14-.4-1.05" transform="translate(-578.751 -449.647)" fill="#ed6bf7"/>
      <path id="Path_21" data-name="Path 21" d="M747,478.058c-.11.034-.31.343-.378.45-.425.7-.284,3.424-.374,4.246a1.562,1.562,0,0,0,.344,1.476c.106-.676-.121-1.012-.052-1.572a17.122,17.122,0,0,1,.262-2.283,2.237,2.237,0,0,0,.071-.747,5.124,5.124,0,0,0,.128-1.569" transform="translate(-577.78 -443.12)" fill="#ed6bf7"/>
      <path id="Path_22" data-name="Path 22" d="M775.36,485.648a23.914,23.914,0,0,1-1.03,7.1,21.633,21.633,0,0,1-2.9,6.043,20.594,20.594,0,0,1-4.527,4.742,21.018,21.018,0,0,1-5.881,3.2l11.74,9.075H758.2l-9.668-7.557h-9.894a24.922,24.922,0,0,1-9.236-1.685,21.563,21.563,0,0,1-12.19-11.84,22.973,22.973,0,0,1-1.755-9.078v-10.32a23.033,23.033,0,0,1,1.755-9.063,21.331,21.331,0,0,1,4.856-7.149,22.188,22.188,0,0,1,7.334-4.693,24.679,24.679,0,0,1,9.236-1.7H752.25a24.46,24.46,0,0,1,9.208,1.7,22.559,22.559,0,0,1,7.334,4.693,21.342,21.342,0,0,1,4.828,7.149,23.272,23.272,0,0,1,1.74,9.063Z" transform="translate(-589.2 -452.526)" fill="#ec6bf8"/>
      <path id="Path_23" data-name="Path 23" d="M731.081,474.083c.041.69.466,1,.374,1.582-.073.429-.21.367-.021.768.117.254.075-.048.11.413a3.318,3.318,0,0,0,.041.442,2.358,2.358,0,0,0,.553,1.37c.573.553.432.573.446,1.578.007.607.011,1.325.052,1.921.065.863.288.708-.025,1.659a8.6,8.6,0,0,0-.687,3.262l-.178,3.772c.034.443.21.13.125.838s-.422,1.181,1.695,1.17c.628,0,1.167.144,1.846.141.488,0,1.5-.069,1.24-.694-.148-.354-1.026-.411-1.377-.617.47-.228,1.377.051,1.349-.68-.374-.295-.443-.093-.827-.233a.8.8,0,0,1-.561-.261l-.538-.361-.24-.107.048-.967a7.749,7.749,0,0,1,.208-3c.219-1.641.518-.038.82-2.592.055-.446.228-.824.285-1.375.274-2.5.4-1.359.477-2.053a2.249,2.249,0,0,0-.11-.687,17.884,17.884,0,0,1,.021-3.061c.034-.34.2-.25.165-.594a4.886,4.886,0,0,1-.165-.655c-.014-.514.425-.58.336-1.273-.027-.217-.134-.447-.174-.669a8.074,8.074,0,0,1-.018-.817,3.45,3.45,0,0,0-.422-1.288,7.98,7.98,0,0,1-.247-1.455,5.47,5.47,0,0,0-.447-1.242c-.154-.421-.023-.3-.081-.614-.038-.2-.128-.236-.3-.391-.011-.01-.038-.016-.045-.041s-.03-.027-.044-.045c.261-1.245.56-.409.992-.96.189-.244.169-1,.251-1.219.062-.16.069.018.154-.281-.144-.411-.3-.25-.357-.624-.058-.416.048-.337-.148-.762.111-.274.282-.182.169-.584-.071-.25-.2-.267.018-.592l-.333-.139-.045-.034c-.014-.01-.03-.023-.044-.034l-.329-.144c-.2-.082.123-.082-.255-.092-.247-.055-.233-.055-.4-.258l-.182.123a2.325,2.325,0,0,1-.919-.11s-.148.13-.182.158-.151.123-.176.141c-.222.154-.1.075-.457.14-.158.4-.069.258-.373.466-.354.244-.121.073-.3.481-.051.13-.274.5-.291.546-.082.2-.038.361-.114.625.169.263.182.1.247.318.144.509-.075-.171-.023.426.195.13.195.048.329.295.459.868.484.347.81.886l-.121.442c-.411.11-.459-.01-.6.4-.271.8-.979.439-1.267,1.731a9.7,9.7,0,0,0,.089,3.693,7.773,7.773,0,0,1,.169,1.812" transform="translate(-583.545 -449.265)" fill="#7322c6"/>
      <path id="Path_24" data-name="Path 24" d="M737.194,465.692c.055.189.176.2.151.457-.021.224-.1.206-.085.491.023.313.144.277.167.47a4.449,4.449,0,0,0,0,1.576c.075.414.01.834.082,1.245a8.469,8.469,0,0,1,.236,1.039c.08.827-.171,1.676.45,2.11a2.809,2.809,0,0,0-.055.756c.055.32.182.354.219.591.107.658-.174.83-.295,1.268-.082.31-.027.385-.13.719a2.644,2.644,0,0,0,.137,2.017c.251.507.69.562.683.978-.007.337-.233.821-.25,1.326-.018.528-.015,1.076-.018,1.6,0,.3.031.5.048.776.018.326-.051.367-.03.7a1.7,1.7,0,0,0-.351.9c-.734,2.463-.206,3.734-.174,5.391.014.591-.075.144-.228.66-.35,1.215-.6,1.688.671,1.777a5.383,5.383,0,0,1,1.739.258c.845.226,3.147.326,2.807-.861-.226-.45-.731-.148-1.791-.68.11-.254.237-.274.169-.635a9.556,9.556,0,0,1-1.205-.174l.13-.3a3.336,3.336,0,0,0,.056-.5c.123-1.421.261-.6.517-1.562,1.1-4.145,2-2.316,1.827-5.367-.041-.724.151-1.332.134-2a23.381,23.381,0,0,0-.557-3.538.887.887,0,0,0,.439-.845l.1-2.371a3.247,3.247,0,0,1-.27-1.016.489.489,0,0,1,.064-.021c.937-.251.477-.123.728-.521.1-.159.041-.073.215-.18.118-.069.319-.058.313-.587a1.544,1.544,0,0,0-.374-.913c-.3-.391-.37-.295-.813-.469.007-1.178-.078-1.1-.717-1.617-.624-.5-.4-.422-.4-.632l-.151-.975-.411-.119c-.185-.639.038-.357-.464-.786a1.071,1.071,0,0,0,.219-.776c1.146.082.968.066,1.088-.539l.278-.72c.07-.137.08-.062.165-.3-.126-.37-.219-.3-.432-.618a3.889,3.889,0,0,0,.007-1.351c-.105-.285-.542-.392-.906-.484a4.263,4.263,0,0,0-2.3-.241,2.249,2.249,0,0,0-1.183,1.51c-.217.6-.1.584-.021,1.13a3.066,3.066,0,0,0,.03.536c.062.274.11.167.114.517-.2.214-.529.361-.374.893" transform="translate(-581.143 -449.448)" fill="#7322c6"/>
      <path id="Path_25" data-name="Path 25" d="M725.228,464.5c-.126.381-.247.281-.1.749.171.521.018.322.071.693.278-.034.285-.292.44,0,.066.128-.052.3-.08.511.532-.1.2-.233.518.254.3-.137.11-.134.281-.1.228.048-.088.14.214.082.215-.038.158-.2.549-.351a1.8,1.8,0,0,1-.74,1.338,2.688,2.688,0,0,0-.55,1.452,5.883,5.883,0,0,0-.082,1.785,15.481,15.481,0,0,0-.107,1.691,2.459,2.459,0,0,1,.186.863c.044.343.171.507.208.83.285,1.393-.782,2.361-.439,3.487.065.219.213.916.272,1.037.126.267.11.071.281.4.6,1.153.535.532.459,1.613a12.305,12.305,0,0,0,.178,2.53,6.724,6.724,0,0,1-.309,2.33,7,7,0,0,0-.162,1.219c0,.428.141.736.169,1.149a10.077,10.077,0,0,0,.062,1.3,7.344,7.344,0,0,1,.021,1.958c-.03.138-.154.44-.158.529-.016.4.021.041.1.326.13.476-.42,1.112,1.338,1.009a4.353,4.353,0,0,1,1.286.058c.728.1,1.884.062,2.165-.562-.058-.426-.144-.217-.213-.415-.106-.31.189-.066-.078-.436-.278-.251-.4-.107-.828-.18a3.066,3.066,0,0,1-.662-.256c-.69-.267-.939-.073-1.06-.854a13.041,13.041,0,0,1,.082-3.474c.066-1.2-.106-.957.267-1.657a3.6,3.6,0,0,0,.4-1.5c.007-.9.206-.858.378-1.569.123-.514.213-1.008.332-1.51.5-.281.845-.329.749-1.126-.082-.69-.47-.889-.511-1.421l.391-.117c.038-.546-.117-1.188-.089-1.877.032-.775-.226-.937-.354-1.561a5.936,5.936,0,0,1,.324-3.245c.587-1.38-.536-1.43-1.13-2.415-.69-1.146-1.119-1.285-.144-2.423.518.044.989.185,1.249-.262a1.536,1.536,0,0,0,.182-.59c.121-.521.048-.165.226-.5-.093-.263-.2-.256-.292-.446-.126-.285-.027-.258-.007-.566.032-.481-.3-.756-.048-1.105.237.064.26.34.278.288.007-.01.018.034.03.048.062-.151.038-.169.1-.343.171-.535-.1-.388.151-.875a.139.139,0,0,0-.055-.018l-.237-.058.148-.474c-.244.086-.244.171-.47.141s.112.014-.228-.086c-.425-.119-.432.169-.793-.346-.912.119-.69-.041-1.54-.354-.165.1-.251.243-.406.326-.329.174-.311-.027-.621.147-.2.114-.137.272-.4.361-.477.16-.7-.128-.856.617l-.058.258a.4.4,0,0,1-.027.055l-.144.409c-.107.388-.388.247-.564.329-.1.416-.13.258.08.525Z" transform="translate(-585.768 -449.413)" fill="#7322c6"/>
      <path id="Path_26" data-name="Path 26" d="M747.219,489.28c.089-.82-.052-3.542.374-4.246.069-.106.267-.414.377-.45a5.119,5.119,0,0,1-.128,1.569,2.249,2.249,0,0,1-.071.749,17.339,17.339,0,0,0-.261,2.282c-.069.559.158.9.051,1.571a1.558,1.558,0,0,1-.343-1.476m-3.312-20.9c-.014.913.071,1.726.13,2.615a11.853,11.853,0,0,0,.1,2.594c.134.913-.281,1.737.247,2.174.014.014.123.158.121.158l-.032.247c-.007.909.206.3.4,1.05a5.606,5.606,0,0,0,.847,2,3.007,3.007,0,0,1,.174,1.2c.189,2.732-.642,3.665-.775,4.828-.1.865-.007,1.877-.066,2.784-.03.45-.069.9-.089,1.349-.03.686.285.72-.023,1.85-.169.608.023.085.064.841.018.315-.021.562.329.69a1.678,1.678,0,0,0,1.1-.128,2.807,2.807,0,0,1,1.27-.082c-.117.756-.24.824.635.882.642.045.669.255,1.208.429.772.254,2.182.47,2.693-.171-.044-.528-.5-.653-.847-.9a11.839,11.839,0,0,0-.93-.775c.075-.309.1-.155.107-.5-.669-.525-.354-.843-.457-1.839a11.363,11.363,0,0,1-.059-2.108c.185-2.777.439-1.866.669-2.714.4-1.48-.285-3.092-.649-4.592l-.429-3.734c.228.315.2.676.619.948a1.186,1.186,0,0,0,.788-.635c-.027-.37-.215-.494-.092-.765.37-.8.178-.247.165-1.157-.027-1.465-.6-.559-.769-1.613l-.717-2.079-.089-.666c-.123-.516-.285-.923-.4-1.459-.041-.188-.2-.61-.207-.731-.027-.347.121-.263.169-.683A18.538,18.538,0,0,0,747.916,466c.251-.58.4-.2.377-1.035a2.837,2.837,0,0,0,1.061-.182l.158-.727a1.611,1.611,0,0,1,.1-.392c.078-.167.082-.034.165-.281-.107-.315-.251-.354-.313-.512-.119-.3.066-.261-.1-.669-.107-.267-.276-.258-.2-.536.18-.661.347-.446-.621-1.033a4.135,4.135,0,0,0-2.028-.055c-.295.075-.178.073-.35.254a.542.542,0,0,1-.165.144c-.617.422-.58.954-.436,1.946.079.559.68,1.411.436,1.692-.285.144-.439.018-.708.276-.213.2-.195.291-.476.517-.7.566-1.092.354-1.219.7,0,.034.117,1.133.13,1.174.165.54.2-.133.182,1.1" transform="translate(-578.752 -449.647)" fill="#7322c6"/>
    </g>
  </g>
</svg>